<svg id="svg" version="1.1" xmlns="http://www.w3.org/2000/svg" xmlns:xlink="http://www.w3.org/1999/xlink" width="400" height="92.64909847434119" viewBox="0, 0, 400,92.64909847434119"><g id="svgg"><path id="path0" d="M2.000 44.000 L 2.000 85.000 62.750 85.000 L 123.501 85.000 123.459 51.792 L 123.417 18.583 118.750 18.583 L 114.083 18.583 114.041 47.125 L 113.999 75.667 62.666 75.667 L 11.333 75.667 11.333 44.084 L 11.333 12.501 57.625 12.459 L 103.917 12.417 103.961 7.708 L 104.005 3.000 53.003 3.000 L 2.000 3.000 2.000 44.000 M34.167 17.750 C 34.167 17.964,30.376 18.177,29.446 18.016 C 29.370 18.002,29.353 18.063,29.407 18.151 C 29.538 18.363,29.104 18.480,28.018 18.525 C 27.309 18.554,27.103 18.626,27.040 18.864 C 26.977 19.104,26.793 19.167,26.147 19.167 C 25.535 19.167,25.333 19.229,25.333 19.417 C 25.333 19.591,25.157 19.667,24.750 19.667 C 24.370 19.667,24.167 19.746,24.167 19.893 C 24.167 20.017,23.923 20.192,23.625 20.281 C 23.327 20.371,23.102 20.532,23.125 20.639 C 23.148 20.746,23.017 20.833,22.833 20.833 C 22.648 20.833,22.500 20.944,22.500 21.083 C 22.500 21.221,22.398 21.333,22.273 21.333 C 21.969 21.333,20.723 22.332,21.019 22.338 C 21.184 22.342,21.170 22.390,20.969 22.508 C 20.482 22.791,19.667 23.682,19.667 23.929 C 19.667 24.060,19.562 24.167,19.435 24.167 C 19.307 24.167,19.156 24.354,19.098 24.583 C 19.041 24.813,18.920 25.000,18.830 25.000 C 18.740 25.000,18.667 25.207,18.667 25.460 C 18.667 25.739,18.536 26.002,18.333 26.128 C 18.103 26.272,18.000 26.517,18.000 26.918 C 18.000 27.324,17.924 27.500,17.750 27.500 C 17.558 27.500,17.500 27.713,17.500 28.417 C 17.500 29.061,17.438 29.321,17.292 29.292 C 17.149 29.263,17.057 29.589,17.000 30.333 C 16.950 30.989,16.796 31.594,16.611 31.867 C 16.196 32.479,16.370 33.000,16.991 33.000 C 17.248 33.000,17.553 33.112,17.667 33.250 C 17.828 33.444,18.277 33.500,19.667 33.500 C 21.057 33.500,21.506 33.556,21.667 33.750 C 21.830 33.947,22.297 34.000,23.854 34.000 C 24.943 34.000,25.833 34.063,25.833 34.140 C 25.833 34.459,26.776 34.667,28.225 34.667 C 29.073 34.667,29.844 34.744,29.939 34.839 C 30.509 35.409,31.326 35.136,31.331 34.375 C 31.332 34.154,31.436 34.000,31.583 34.000 C 31.761 34.000,31.833 33.819,31.833 33.370 C 31.833 32.931,31.935 32.667,32.167 32.500 C 32.350 32.368,32.500 32.202,32.500 32.132 C 32.500 31.820,33.445 30.679,33.708 30.673 C 33.869 30.670,34.000 30.554,34.000 30.417 C 34.000 30.249,34.167 30.167,34.505 30.167 C 34.801 30.167,35.050 30.063,35.106 29.917 C 35.248 29.547,40.357 29.547,40.726 29.917 C 40.864 30.054,41.019 30.167,41.071 30.167 C 41.270 30.167,41.833 30.844,41.833 31.083 C 41.833 31.221,41.908 31.333,42.000 31.333 C 42.092 31.333,42.168 31.465,42.169 31.625 C 42.171 31.874,42.195 31.880,42.333 31.667 C 42.444 31.496,42.496 31.931,42.497 33.042 L 42.500 34.667 41.995 34.667 C 41.699 34.667,41.450 34.771,41.394 34.917 C 41.340 35.056,41.092 35.167,40.833 35.167 C 40.578 35.167,40.329 35.272,40.279 35.400 C 40.230 35.528,39.885 35.685,39.512 35.748 C 39.139 35.811,38.777 35.963,38.708 36.086 C 38.639 36.209,38.246 36.334,37.833 36.363 C 37.343 36.398,37.098 36.489,37.125 36.625 C 37.154 36.769,36.913 36.833,36.342 36.833 C 35.821 36.833,35.467 36.917,35.383 37.061 C 35.308 37.188,34.854 37.325,34.347 37.372 C 33.783 37.425,33.370 37.558,33.245 37.728 C 33.107 37.917,32.791 38.000,32.210 38.000 C 31.670 38.000,31.301 38.089,31.167 38.250 C 31.035 38.409,30.667 38.500,30.160 38.500 C 29.248 38.500,28.792 38.632,28.930 38.855 C 28.982 38.939,28.963 38.998,28.887 38.984 C 28.039 38.837,27.000 39.029,27.000 39.333 C 27.000 39.646,26.100 39.808,25.061 39.683 C 24.956 39.671,24.828 39.775,24.774 39.914 C 24.718 40.060,24.472 40.167,24.192 40.167 C 23.926 40.167,23.614 40.279,23.500 40.417 C 23.386 40.554,23.126 40.667,22.922 40.667 C 22.718 40.667,22.416 40.817,22.250 41.000 C 22.084 41.183,21.810 41.333,21.641 41.333 C 21.472 41.333,21.333 41.446,21.333 41.583 C 21.333 41.750,21.167 41.833,20.833 41.833 C 20.500 41.833,20.333 41.917,20.333 42.083 C 20.333 42.222,20.185 42.333,20.000 42.333 C 19.793 42.333,19.667 42.444,19.667 42.627 C 19.667 42.789,19.498 42.995,19.292 43.085 C 19.085 43.176,18.843 43.419,18.752 43.625 C 18.662 43.831,18.486 44.000,18.362 44.000 C 18.237 44.000,18.096 44.150,18.048 44.333 C 18.000 44.517,17.857 44.667,17.731 44.667 C 17.604 44.667,17.500 44.807,17.500 44.980 C 17.500 45.152,17.387 45.386,17.250 45.500 C 17.112 45.614,17.000 45.869,17.000 46.067 C 17.000 46.265,16.850 46.535,16.667 46.667 C 16.449 46.824,16.333 47.098,16.333 47.459 C 16.333 47.795,16.236 48.048,16.083 48.106 C 15.895 48.179,15.833 48.482,15.833 49.333 C 15.833 50.185,15.772 50.488,15.583 50.560 C 15.222 50.699,15.213 55.924,15.573 56.322 C 15.722 56.487,15.827 57.012,15.850 57.710 C 15.876 58.521,15.948 58.833,16.110 58.833 C 16.254 58.833,16.333 59.040,16.333 59.417 C 16.333 59.889,16.397 60.000,16.667 60.000 C 16.937 60.000,17.000 60.111,17.000 60.583 C 17.000 60.991,17.075 61.167,17.250 61.167 C 17.404 61.167,17.500 61.323,17.500 61.575 C 17.500 61.999,18.148 62.833,18.477 62.833 C 18.582 62.833,18.667 62.943,18.667 63.078 C 18.667 63.395,19.771 64.500,20.089 64.500 C 20.223 64.500,20.333 64.612,20.333 64.750 C 20.333 64.887,20.437 65.000,20.564 65.000 C 20.691 65.000,20.834 65.152,20.883 65.338 C 20.932 65.524,21.034 65.665,21.111 65.652 C 21.570 65.571,22.000 65.699,22.000 65.917 C 22.000 66.081,22.165 66.167,22.482 66.167 C 22.757 66.167,23.006 66.274,23.060 66.417 C 23.126 66.587,23.393 66.667,23.900 66.667 C 24.491 66.667,24.665 66.734,24.747 66.991 C 24.911 67.506,34.238 67.519,34.790 67.004 C 35.055 66.758,35.380 66.667,35.993 66.667 C 36.629 66.667,36.833 66.606,36.833 66.417 C 36.833 66.244,37.007 66.167,37.396 66.167 C 37.706 66.167,38.053 66.054,38.167 65.917 C 38.281 65.779,38.515 65.667,38.687 65.667 C 38.859 65.667,39.150 65.517,39.333 65.333 C 39.517 65.150,39.779 65.000,39.917 65.000 C 40.054 65.000,40.167 64.887,40.167 64.750 C 40.167 64.612,40.282 64.500,40.422 64.500 C 40.562 64.500,40.720 64.388,40.773 64.250 C 40.826 64.113,40.973 64.000,41.101 64.000 C 41.229 64.000,41.641 63.701,42.018 63.335 C 42.395 62.969,42.770 62.711,42.852 62.761 C 42.933 62.812,43.000 62.699,43.000 62.510 C 43.000 62.029,43.331 62.152,43.783 62.799 C 44.045 63.174,44.167 63.586,44.167 64.096 C 44.167 64.607,44.246 64.874,44.417 64.940 C 44.554 64.992,44.667 65.225,44.667 65.457 C 44.667 65.695,44.852 66.050,45.092 66.273 L 45.517 66.667 52.491 66.667 C 58.696 66.667,59.475 66.638,59.566 66.403 C 59.759 65.900,59.665 65.317,59.333 64.962 C 59.139 64.753,59.000 64.373,59.000 64.052 C 59.000 63.672,58.922 63.500,58.750 63.500 C 58.521 63.500,58.374 62.380,58.491 61.525 C 58.508 61.401,58.450 61.344,58.362 61.399 C 58.028 61.605,58.003 60.628,57.998 46.958 C 57.993 34.057,57.970 32.910,57.712 32.625 C 57.509 32.401,57.418 31.941,57.381 30.960 C 57.346 30.055,57.247 29.514,57.081 29.331 C 56.936 29.171,56.833 28.734,56.833 28.279 C 56.833 27.698,56.770 27.500,56.583 27.500 C 56.413 27.500,56.327 27.315,56.313 26.917 C 56.281 26.040,56.270 26.000,56.000 25.833 C 55.749 25.678,55.726 25.617,55.688 25.000 C 55.676 24.817,55.554 24.667,55.417 24.667 C 55.202 24.667,55.074 24.251,55.147 23.792 C 55.158 23.723,55.063 23.667,54.936 23.667 C 54.809 23.667,54.666 23.517,54.618 23.333 C 54.570 23.150,54.407 23.000,54.256 23.000 C 54.103 23.000,54.029 22.921,54.090 22.822 C 54.151 22.724,54.043 22.603,53.850 22.553 C 53.658 22.502,53.500 22.355,53.500 22.225 C 53.500 22.096,53.387 21.946,53.250 21.894 C 53.112 21.841,53.000 21.693,53.000 21.566 C 53.000 21.438,52.850 21.333,52.667 21.333 C 52.481 21.333,52.333 21.222,52.333 21.083 C 52.333 20.946,52.221 20.833,52.083 20.833 C 51.946 20.833,51.833 20.755,51.833 20.658 C 51.833 20.562,51.571 20.373,51.250 20.239 C 50.929 20.105,50.667 19.922,50.667 19.831 C 50.667 19.741,50.439 19.667,50.161 19.667 C 49.866 19.667,49.616 19.563,49.560 19.417 C 49.505 19.272,49.255 19.167,48.966 19.167 C 48.692 19.167,48.269 19.030,48.026 18.864 C 47.782 18.697,47.246 18.544,46.833 18.524 C 45.792 18.474,45.167 18.335,45.167 18.153 C 45.167 18.066,43.952 18.000,42.343 18.000 C 40.610 18.000,39.479 17.935,39.415 17.831 C 39.357 17.737,39.240 17.704,39.155 17.757 C 39.070 17.810,39.000 17.774,39.000 17.677 C 39.000 17.560,38.173 17.500,36.583 17.500 C 34.546 17.500,34.167 17.539,34.167 17.750 M82.628 17.729 C 82.441 17.916,81.821 17.987,80.019 18.029 C 78.541 18.063,77.609 18.152,77.535 18.267 C 77.470 18.367,76.972 18.495,76.428 18.549 C 75.789 18.614,75.389 18.740,75.295 18.908 C 75.198 19.082,74.905 19.167,74.403 19.167 C 73.893 19.167,73.626 19.246,73.560 19.417 C 73.506 19.559,73.257 19.667,72.982 19.667 C 72.671 19.667,72.500 19.753,72.500 19.909 C 72.500 20.054,72.266 20.195,71.917 20.261 C 71.583 20.324,71.333 20.469,71.333 20.602 C 71.333 20.729,71.229 20.833,71.101 20.833 C 70.973 20.833,70.826 20.946,70.773 21.083 C 70.720 21.221,70.565 21.333,70.428 21.333 C 70.121 21.333,69.479 21.998,69.599 22.192 C 69.647 22.270,69.574 22.333,69.438 22.333 C 69.301 22.333,69.142 22.482,69.084 22.663 C 69.027 22.845,68.928 22.976,68.865 22.955 C 68.677 22.892,68.000 23.646,68.000 23.917 C 68.000 24.054,67.887 24.167,67.750 24.167 C 67.525 24.167,67.426 24.365,67.480 24.708 C 67.491 24.777,67.396 24.833,67.268 24.833 C 66.998 24.833,66.833 25.189,66.833 25.769 C 66.833 25.993,66.721 26.220,66.583 26.273 C 66.429 26.332,66.333 26.586,66.333 26.934 C 66.333 27.326,66.256 27.500,66.083 27.500 C 65.946 27.500,65.831 27.556,65.827 27.625 C 65.793 28.304,65.588 29.103,65.399 29.291 C 65.254 29.437,65.167 29.886,65.167 30.491 C 65.167 31.148,65.086 31.526,64.917 31.667 C 64.318 32.163,64.693 33.000,65.514 33.000 C 65.689 33.000,65.833 33.104,65.833 33.231 C 65.833 33.414,66.242 33.468,67.770 33.489 C 69.213 33.509,69.768 33.578,69.948 33.758 C 70.133 33.943,70.663 34.000,72.179 34.000 C 73.767 34.000,74.167 34.047,74.167 34.232 C 74.167 34.564,74.377 34.605,76.332 34.653 C 77.294 34.676,78.119 34.752,78.166 34.821 C 78.514 35.338,79.446 35.128,79.583 34.500 C 79.640 34.240,79.795 33.986,79.927 33.936 C 80.073 33.880,80.167 33.614,80.167 33.255 C 80.167 32.932,80.237 32.667,80.322 32.667 C 80.408 32.667,80.527 32.509,80.589 32.317 C 80.650 32.124,80.823 31.830,80.975 31.662 C 81.539 31.037,81.644 30.866,81.532 30.754 C 81.468 30.691,81.492 30.654,81.583 30.673 C 82.004 30.757,82.333 30.645,82.333 30.417 C 82.333 30.249,82.501 30.167,82.839 30.167 C 83.134 30.167,83.384 30.063,83.440 29.917 C 83.519 29.709,83.981 29.667,86.164 29.667 C 88.297 29.667,88.832 29.714,89.000 29.917 C 89.114 30.054,89.311 30.167,89.437 30.167 C 89.563 30.167,89.667 30.279,89.667 30.417 C 89.667 30.554,89.779 30.667,89.917 30.667 C 90.070 30.667,90.167 30.823,90.167 31.069 C 90.167 31.291,90.259 31.503,90.371 31.540 C 90.580 31.610,90.835 33.815,90.699 34.375 C 90.652 34.569,90.467 34.667,90.147 34.667 C 89.831 34.667,89.667 34.752,89.667 34.917 C 89.667 35.084,89.499 35.167,89.161 35.167 C 88.866 35.167,88.616 35.271,88.560 35.417 C 88.501 35.571,88.248 35.667,87.897 35.667 C 87.536 35.667,87.226 35.788,87.045 36.000 C 86.855 36.221,86.553 36.333,86.147 36.333 C 85.757 36.333,85.501 36.424,85.440 36.583 C 85.377 36.747,85.117 36.833,84.684 36.833 C 84.321 36.833,83.913 36.944,83.777 37.080 C 83.635 37.222,83.173 37.339,82.684 37.356 C 82.102 37.377,81.751 37.482,81.559 37.693 C 81.364 37.909,81.047 38.000,80.495 38.000 C 79.998 38.000,79.631 38.092,79.500 38.250 C 79.360 38.419,78.983 38.500,78.333 38.500 C 77.684 38.500,77.307 38.581,77.167 38.750 C 77.049 38.892,76.686 39.000,76.327 39.000 C 75.532 39.000,75.167 39.137,75.167 39.434 C 75.167 39.602,74.933 39.667,74.321 39.667 C 73.792 39.667,73.383 39.760,73.226 39.917 C 73.089 40.054,72.766 40.167,72.509 40.167 C 72.251 40.167,71.947 40.279,71.833 40.417 C 71.719 40.554,71.490 40.667,71.325 40.667 C 71.159 40.667,70.896 40.795,70.739 40.952 C 70.582 41.108,70.297 41.260,70.106 41.290 C 69.915 41.319,69.696 41.453,69.621 41.588 C 69.545 41.723,69.308 41.833,69.093 41.833 C 68.878 41.833,68.659 41.946,68.606 42.083 C 68.554 42.221,68.396 42.333,68.255 42.333 C 68.111 42.333,68.000 42.478,68.000 42.667 C 68.000 42.852,67.889 43.000,67.750 43.000 C 67.469 43.000,66.833 43.578,66.833 43.833 C 66.833 43.925,66.721 44.000,66.583 44.000 C 66.444 44.000,66.333 44.148,66.333 44.333 C 66.333 44.519,66.222 44.667,66.083 44.667 C 65.946 44.667,65.833 44.769,65.833 44.894 C 65.833 45.019,65.683 45.312,65.500 45.545 C 65.317 45.779,65.167 46.079,65.167 46.214 C 65.167 46.349,65.054 46.553,64.917 46.667 C 64.779 46.781,64.667 47.127,64.667 47.437 C 64.667 47.826,64.590 48.000,64.417 48.000 C 64.273 48.000,64.160 48.160,64.151 48.375 C 64.082 49.964,64.024 50.326,63.779 50.677 C 63.393 51.227,63.363 55.942,63.743 56.232 C 63.889 56.343,64.024 56.846,64.083 57.497 C 64.145 58.189,64.268 58.627,64.423 58.714 C 64.563 58.792,64.667 59.094,64.667 59.425 C 64.667 59.825,64.743 60.000,64.917 60.000 C 65.091 60.000,65.167 60.176,65.167 60.583 C 65.167 61.056,65.230 61.167,65.500 61.167 C 65.683 61.167,65.824 61.223,65.814 61.292 C 65.723 61.865,65.859 62.359,66.083 62.273 C 66.253 62.208,66.333 62.282,66.333 62.505 C 66.333 62.686,66.446 62.833,66.583 62.833 C 66.721 62.833,66.833 62.934,66.833 63.057 C 66.833 63.311,68.063 64.500,68.326 64.500 C 68.422 64.500,68.500 64.612,68.500 64.750 C 68.500 64.887,68.610 65.000,68.744 65.000 C 68.878 65.000,69.069 65.150,69.167 65.333 C 69.271 65.528,69.516 65.667,69.756 65.667 C 70.010 65.667,70.167 65.762,70.167 65.917 C 70.167 66.091,70.343 66.167,70.750 66.167 C 71.157 66.167,71.333 66.242,71.333 66.417 C 71.333 66.606,71.537 66.667,72.167 66.667 C 72.768 66.667,73.000 66.731,73.000 66.899 C 73.000 67.494,82.549 67.590,83.083 67.000 C 83.306 66.753,83.597 66.667,84.198 66.667 C 84.766 66.667,85.039 66.592,85.106 66.417 C 85.160 66.278,85.407 66.167,85.664 66.167 C 85.918 66.167,86.219 66.054,86.333 65.917 C 86.447 65.779,86.720 65.667,86.939 65.667 C 87.158 65.667,87.465 65.517,87.622 65.333 C 87.779 65.150,88.041 65.000,88.204 65.000 C 88.367 65.000,88.500 64.887,88.500 64.750 C 88.500 64.612,88.604 64.500,88.732 64.500 C 88.860 64.500,89.008 64.387,89.060 64.250 C 89.113 64.112,89.306 64.000,89.489 64.000 C 89.672 64.000,89.902 63.850,90.000 63.667 C 90.098 63.483,90.288 63.333,90.423 63.333 C 90.557 63.333,90.667 63.221,90.667 63.083 C 90.667 62.946,90.779 62.833,90.917 62.833 C 91.054 62.833,91.167 62.739,91.167 62.623 C 91.167 62.263,91.832 61.934,91.839 62.290 C 91.842 62.451,91.954 62.729,92.089 62.907 C 92.223 63.085,92.334 63.460,92.336 63.740 C 92.339 64.502,92.510 65.000,92.769 65.000 C 92.922 65.000,93.000 65.198,93.000 65.583 C 93.000 65.971,93.078 66.167,93.232 66.167 C 93.360 66.167,93.508 66.279,93.560 66.417 C 93.643 66.633,94.598 66.667,100.745 66.667 L 107.833 66.667 107.833 65.937 C 107.833 65.492,107.736 65.127,107.583 65.000 C 107.440 64.881,107.333 64.517,107.333 64.146 C 107.333 63.683,107.263 63.500,107.083 63.500 C 106.901 63.500,106.833 63.309,106.831 62.792 C 106.828 61.842,106.677 61.333,106.397 61.333 C 106.205 61.333,105.970 33.609,106.154 32.605 C 106.168 32.525,106.065 32.503,105.923 32.558 C 105.706 32.641,105.666 32.459,105.664 31.370 C 105.662 30.024,105.543 29.287,105.346 29.409 C 105.283 29.448,105.214 29.166,105.193 28.782 C 105.142 27.836,105.023 27.500,104.739 27.500 C 104.567 27.500,104.500 27.289,104.500 26.745 C 104.500 26.227,104.421 25.959,104.250 25.894 C 104.111 25.840,104.000 25.592,104.000 25.333 C 104.000 25.074,103.889 24.827,103.750 24.773 C 103.612 24.720,103.500 24.543,103.500 24.379 C 103.500 24.214,103.350 23.987,103.167 23.872 C 102.983 23.758,102.833 23.514,102.833 23.332 C 102.833 23.148,102.722 23.000,102.583 23.000 C 102.446 23.000,102.333 22.887,102.333 22.750 C 102.333 22.613,102.230 22.500,102.103 22.500 C 101.976 22.500,101.833 22.350,101.785 22.167 C 101.737 21.983,101.578 21.833,101.432 21.833 C 101.286 21.833,101.167 21.721,101.167 21.583 C 101.167 21.446,101.054 21.333,100.917 21.333 C 100.779 21.333,100.667 21.221,100.667 21.083 C 100.667 20.944,100.519 20.833,100.333 20.833 C 100.146 20.833,100.000 20.722,100.000 20.579 C 100.000 20.431,99.795 20.284,99.511 20.227 C 99.242 20.173,98.981 20.025,98.933 19.898 C 98.884 19.771,98.616 19.667,98.339 19.667 C 98.001 19.667,97.833 19.584,97.833 19.417 C 97.833 19.237,97.649 19.167,97.176 19.167 C 96.724 19.167,96.451 19.070,96.301 18.856 C 96.043 18.487,96.097 18.500,94.823 18.500 C 94.268 18.500,93.855 18.434,93.905 18.352 C 94.070 18.085,93.285 18.005,90.479 18.002 C 88.365 18.001,87.663 17.947,87.522 17.776 C 87.238 17.435,82.964 17.393,82.628 17.729 M90.759 45.958 C 90.738 46.760,90.709 48.148,90.694 49.042 C 90.672 50.363,90.620 50.667,90.417 50.667 C 90.231 50.667,90.167 50.862,90.167 51.422 C 90.167 51.939,90.088 52.207,89.917 52.273 C 89.779 52.326,89.667 52.511,89.667 52.684 C 89.667 52.889,89.549 53.000,89.333 53.000 C 89.150 53.000,89.009 53.056,89.020 53.125 C 89.098 53.620,88.968 53.960,88.708 53.940 C 88.525 53.925,88.425 54.025,88.440 54.208 C 88.453 54.375,88.346 54.502,88.190 54.505 C 87.844 54.512,87.303 54.914,87.447 55.058 C 87.507 55.118,87.393 55.167,87.194 55.167 C 86.985 55.167,86.833 55.271,86.833 55.417 C 86.833 55.562,86.682 55.667,86.471 55.667 C 86.272 55.667,85.991 55.773,85.846 55.903 C 85.636 56.092,83.745 56.385,82.917 56.357 C 82.261 56.335,81.307 56.085,81.149 55.895 C 81.044 55.769,80.821 55.667,80.652 55.667 C 80.314 55.667,80.002 55.203,80.120 54.875 C 80.161 54.760,80.076 54.667,79.931 54.667 C 79.704 54.667,79.576 54.279,79.644 53.802 C 79.653 53.739,79.511 53.640,79.330 53.582 C 78.898 53.445,78.820 51.167,79.247 51.167 C 79.383 51.167,79.542 50.960,79.600 50.708 C 79.659 50.456,79.791 50.173,79.895 50.079 C 79.999 49.986,80.164 49.761,80.264 49.579 C 80.363 49.398,80.607 49.176,80.805 49.085 C 81.004 48.995,81.167 48.826,81.167 48.710 C 81.167 48.595,81.300 48.500,81.463 48.500 C 81.626 48.500,81.868 48.350,82.000 48.167 C 82.137 47.976,82.431 47.833,82.686 47.833 C 82.931 47.833,83.172 47.726,83.223 47.594 C 83.275 47.459,83.591 47.332,83.949 47.302 C 84.347 47.269,84.568 47.172,84.542 47.042 C 84.513 46.898,84.752 46.833,85.314 46.833 C 85.988 46.833,86.143 46.776,86.215 46.500 C 86.286 46.228,86.442 46.167,87.068 46.167 C 87.637 46.167,87.833 46.103,87.833 45.917 C 87.833 45.743,88.008 45.667,88.403 45.667 C 89.099 45.667,89.530 45.516,89.406 45.316 C 89.355 45.234,89.588 45.167,89.922 45.167 C 90.391 45.167,90.551 45.090,90.618 44.833 C 90.771 44.251,90.797 44.463,90.759 45.958 M42.500 47.647 C 42.500 50.397,42.476 50.634,42.194 50.708 C 42.026 50.752,41.884 50.892,41.878 51.019 C 41.833 51.978,41.747 52.290,41.549 52.214 C 41.417 52.163,41.333 52.259,41.333 52.462 C 41.333 52.644,41.221 52.886,41.083 53.000 C 40.946 53.114,40.833 53.323,40.833 53.465 C 40.833 53.606,40.787 53.676,40.731 53.620 C 40.675 53.564,40.447 53.735,40.224 54.000 C 40.001 54.265,39.672 54.529,39.493 54.586 C 39.313 54.643,39.167 54.797,39.167 54.928 C 39.167 55.059,39.017 55.167,38.833 55.167 C 38.648 55.167,38.500 55.278,38.500 55.417 C 38.500 55.583,38.333 55.667,38.000 55.667 C 37.689 55.667,37.500 55.753,37.500 55.894 C 37.500 56.358,33.253 56.410,32.969 55.950 C 32.901 55.840,32.787 55.747,32.714 55.744 C 32.407 55.730,31.833 55.231,31.833 54.978 C 31.833 54.826,31.721 54.659,31.583 54.606 C 31.446 54.554,31.333 54.318,31.333 54.083 C 31.333 53.848,31.221 53.613,31.083 53.560 C 30.895 53.488,30.833 53.183,30.833 52.316 C 30.833 51.405,30.885 51.167,31.083 51.167 C 31.258 51.167,31.333 50.991,31.333 50.589 C 31.333 50.143,31.391 50.032,31.583 50.106 C 31.767 50.177,31.833 50.084,31.833 49.758 C 31.833 49.502,31.905 49.358,32.001 49.417 C 32.093 49.474,32.214 49.404,32.269 49.261 C 32.324 49.117,32.511 49.000,32.684 49.000 C 32.858 49.000,33.000 48.887,33.000 48.750 C 33.000 48.612,33.108 48.500,33.241 48.500 C 33.373 48.500,33.585 48.352,33.711 48.172 C 33.842 47.985,34.168 47.826,34.466 47.803 C 34.755 47.781,35.028 47.666,35.074 47.548 C 35.119 47.430,35.386 47.333,35.667 47.333 C 35.967 47.333,36.217 47.230,36.273 47.083 C 36.332 46.931,36.584 46.833,36.921 46.833 C 37.638 46.833,38.000 46.688,38.000 46.399 C 38.000 46.235,38.219 46.167,38.742 46.167 C 39.215 46.167,39.532 46.080,39.618 45.926 C 39.696 45.787,40.054 45.667,40.460 45.643 C 40.909 45.617,41.167 45.522,41.167 45.384 C 41.167 45.264,41.351 45.167,41.577 45.167 C 41.802 45.167,42.084 45.057,42.202 44.923 C 42.320 44.789,42.435 44.676,42.458 44.673 C 42.481 44.670,42.500 46.008,42.500 47.647 " stroke="none" fill="#9c7ce4" fill-rule="evenodd"></path><path id="path1" d="M145.048 8.333 C 145.000 8.517,144.857 8.667,144.731 8.667 C 144.587 8.667,144.500 8.849,144.500 9.149 C 144.500 9.424,144.393 9.672,144.250 9.727 C 144.079 9.793,144.000 10.061,144.000 10.578 C 144.000 11.116,143.933 11.333,143.766 11.333 C 143.611 11.333,143.492 11.616,143.417 12.167 C 143.341 12.717,143.223 13.000,143.068 13.000 C 142.898 13.000,142.833 13.228,142.833 13.833 C 142.833 14.463,142.772 14.667,142.583 14.667 C 142.409 14.667,142.333 14.843,142.333 15.250 C 142.333 15.657,142.258 15.833,142.083 15.833 C 141.922 15.833,141.833 15.996,141.831 16.292 C 141.828 17.005,141.650 17.500,141.397 17.500 C 141.232 17.500,141.167 17.735,141.167 18.333 C 141.167 18.963,141.106 19.167,140.917 19.167 C 140.728 19.167,140.667 19.370,140.667 20.000 C 140.667 20.630,140.606 20.833,140.417 20.833 C 140.252 20.833,140.167 20.998,140.167 21.314 C 140.167 21.654,140.069 21.820,139.833 21.882 C 139.561 21.953,139.500 22.109,139.500 22.734 C 139.500 23.304,139.436 23.500,139.250 23.500 C 139.061 23.500,139.000 23.704,139.000 24.333 C 139.000 24.963,138.939 25.167,138.750 25.167 C 138.577 25.167,138.500 25.340,138.500 25.731 C 138.500 26.154,138.417 26.316,138.167 26.382 C 137.894 26.453,137.833 26.609,137.833 27.234 C 137.833 27.804,137.769 28.000,137.583 28.000 C 137.394 28.000,137.333 28.204,137.333 28.833 C 137.333 29.463,137.272 29.667,137.083 29.667 C 136.894 29.667,136.833 29.870,136.833 30.500 C 136.833 31.222,136.789 31.333,136.500 31.333 C 136.230 31.333,136.167 31.444,136.167 31.917 C 136.167 32.324,136.091 32.500,135.917 32.500 C 135.720 32.500,135.667 32.731,135.667 33.583 L 135.667 34.667 140.083 34.667 C 144.389 34.667,144.500 34.658,144.500 34.333 C 144.500 34.148,144.611 34.000,144.750 34.000 C 144.938 34.000,145.000 33.798,145.000 33.186 C 145.000 32.512,145.057 32.357,145.333 32.285 C 145.621 32.210,145.667 32.058,145.667 31.182 L 145.667 30.167 149.833 30.167 L 154.000 30.167 154.000 31.000 C 154.000 31.630,154.061 31.833,154.250 31.833 C 154.439 31.833,154.500 32.037,154.500 32.667 C 154.500 33.280,154.563 33.500,154.739 33.500 C 154.888 33.500,154.999 33.706,155.031 34.042 L 155.083 34.583 159.792 34.628 L 164.500 34.672 164.500 33.836 C 164.500 33.204,164.439 33.000,164.250 33.000 C 164.077 33.000,164.000 32.826,164.000 32.430 C 164.000 31.696,163.856 31.333,163.566 31.333 C 163.411 31.333,163.333 31.137,163.333 30.750 C 163.333 30.343,163.258 30.167,163.083 30.167 C 162.894 30.167,162.833 29.963,162.833 29.333 C 162.833 28.704,162.772 28.500,162.583 28.500 C 162.397 28.500,162.333 28.304,162.333 27.734 C 162.333 27.109,162.272 26.953,162.000 26.882 C 161.730 26.811,161.667 26.654,161.667 26.059 C 161.667 25.558,161.587 25.292,161.417 25.227 C 161.274 25.172,161.167 24.924,161.167 24.649 C 161.167 24.331,161.081 24.167,160.917 24.167 C 160.728 24.167,160.667 23.963,160.667 23.333 C 160.667 22.611,160.622 22.500,160.333 22.500 C 160.044 22.500,160.000 22.389,160.000 21.667 C 160.000 21.037,159.939 20.833,159.750 20.833 C 159.561 20.833,159.500 20.630,159.500 20.000 C 159.500 19.370,159.439 19.167,159.250 19.167 C 159.075 19.167,159.000 18.991,159.000 18.583 C 159.000 18.111,158.937 18.000,158.667 18.000 C 158.378 18.000,158.333 17.889,158.333 17.167 C 158.333 16.537,158.272 16.333,158.083 16.333 C 157.898 16.333,157.833 16.138,157.833 15.578 C 157.833 15.061,157.755 14.793,157.583 14.727 C 157.431 14.668,157.333 14.416,157.333 14.079 C 157.333 13.362,157.188 13.000,156.899 13.000 C 156.751 13.000,156.667 12.816,156.667 12.495 C 156.667 12.199,156.563 11.950,156.417 11.894 C 156.247 11.828,156.167 11.563,156.167 11.066 C 156.167 10.526,156.101 10.333,155.917 10.333 C 155.731 10.333,155.667 10.137,155.667 9.568 C 155.667 8.942,155.606 8.786,155.333 8.715 C 155.149 8.667,155.000 8.488,155.000 8.314 C 155.000 7.808,145.181 7.827,145.048 8.333 M211.167 21.333 L 211.167 34.667 215.250 34.667 L 219.333 34.667 219.333 21.333 L 219.333 8.000 215.250 8.000 L 211.167 8.000 211.167 21.333 M192.227 14.917 C 192.161 15.087,191.894 15.167,191.383 15.167 C 190.776 15.167,190.619 15.229,190.548 15.500 C 190.487 15.736,190.321 15.833,189.981 15.833 C 189.665 15.833,189.500 15.919,189.500 16.083 C 189.500 16.221,189.385 16.333,189.245 16.333 C 189.104 16.333,188.946 16.446,188.894 16.583 C 188.841 16.721,188.693 16.833,188.566 16.833 C 188.438 16.833,188.333 16.983,188.333 17.167 C 188.333 17.352,188.222 17.500,188.083 17.500 C 187.919 17.500,187.833 17.665,187.833 17.981 C 187.833 18.321,187.736 18.487,187.500 18.548 C 187.261 18.611,187.167 18.776,187.167 19.133 C 187.167 19.422,187.062 19.671,186.917 19.727 C 186.733 19.798,186.667 20.088,186.667 20.828 L 186.667 21.833 187.481 21.833 C 188.154 21.833,188.309 21.891,188.382 22.167 C 188.465 22.484,188.609 22.500,191.417 22.500 C 194.224 22.500,194.369 22.484,194.452 22.167 C 194.500 21.983,194.643 21.833,194.769 21.833 C 194.896 21.833,195.000 21.721,195.000 21.583 C 195.000 21.446,195.112 21.333,195.250 21.333 C 195.387 21.333,195.500 21.221,195.500 21.083 C 195.500 20.909,195.676 20.833,196.083 20.833 C 196.556 20.833,196.667 20.770,196.667 20.500 C 196.667 20.212,196.778 20.167,197.481 20.167 C 198.154 20.167,198.309 20.224,198.382 20.500 C 198.445 20.743,198.609 20.833,198.984 20.833 C 199.446 20.833,199.500 20.886,199.500 21.333 C 199.500 21.781,199.446 21.833,198.984 21.833 C 198.609 21.833,198.445 21.924,198.382 22.167 C 198.309 22.443,198.154 22.500,197.481 22.500 C 196.868 22.500,196.667 22.562,196.667 22.750 C 196.667 22.951,196.407 23.000,195.333 23.000 C 194.259 23.000,194.000 23.049,194.000 23.250 C 194.000 23.452,193.739 23.500,192.651 23.500 C 191.442 23.500,191.293 23.535,191.215 23.833 C 191.143 24.109,190.988 24.167,190.314 24.167 C 189.702 24.167,189.500 24.229,189.500 24.417 C 189.500 24.591,189.324 24.667,188.917 24.667 C 188.509 24.667,188.333 24.742,188.333 24.917 C 188.333 25.054,188.221 25.167,188.083 25.167 C 187.944 25.167,187.833 25.315,187.833 25.500 C 187.833 25.722,187.722 25.833,187.500 25.833 C 187.315 25.833,187.167 25.944,187.167 26.083 C 187.167 26.221,187.054 26.333,186.917 26.333 C 186.742 26.333,186.667 26.509,186.667 26.917 C 186.667 27.324,186.591 27.500,186.417 27.500 C 186.207 27.500,186.167 27.852,186.167 29.667 C 186.167 31.481,186.207 31.833,186.417 31.833 C 186.575 31.833,186.667 31.993,186.667 32.268 C 186.667 32.723,187.266 33.492,187.625 33.497 C 187.740 33.499,187.833 33.612,187.833 33.750 C 187.833 33.887,187.946 34.000,188.083 34.000 C 188.221 34.000,188.333 34.104,188.333 34.232 C 188.333 34.523,188.696 34.667,189.430 34.667 C 189.826 34.667,190.000 34.743,190.000 34.917 C 190.000 35.131,190.481 35.167,193.333 35.167 C 196.185 35.167,196.667 35.131,196.667 34.917 C 196.667 34.728,196.870 34.667,197.500 34.667 C 198.222 34.667,198.333 34.622,198.333 34.333 C 198.333 34.073,198.444 34.000,198.839 34.000 C 199.134 34.000,199.384 33.896,199.440 33.750 C 199.492 33.612,199.640 33.500,199.768 33.500 C 199.896 33.500,200.000 33.387,200.000 33.250 C 200.000 32.561,200.485 33.055,200.533 33.792 L 200.583 34.583 204.458 34.628 L 208.333 34.673 208.333 33.586 C 208.333 32.732,208.280 32.500,208.083 32.500 C 207.865 32.500,207.833 31.683,207.833 26.151 C 207.833 19.942,207.826 19.800,207.500 19.715 C 207.224 19.643,207.167 19.488,207.167 18.814 C 207.167 18.202,207.105 18.000,206.917 18.000 C 206.763 18.000,206.667 17.844,206.667 17.592 C 206.667 17.167,206.019 16.333,205.689 16.333 C 205.585 16.333,205.500 16.221,205.500 16.083 C 205.500 15.919,205.335 15.833,205.019 15.833 C 204.679 15.833,204.513 15.736,204.452 15.500 C 204.381 15.229,204.224 15.167,203.617 15.167 C 203.106 15.167,202.839 15.087,202.773 14.917 C 202.691 14.702,201.948 14.667,197.500 14.667 C 193.052 14.667,192.309 14.702,192.227 14.917 M229.394 14.917 C 229.329 15.086,229.064 15.167,228.577 15.167 C 228.002 15.167,227.834 15.234,227.750 15.500 C 227.676 15.734,227.498 15.833,227.155 15.833 C 226.832 15.833,226.667 15.918,226.667 16.083 C 226.667 16.221,226.552 16.333,226.411 16.333 C 226.271 16.333,226.116 16.437,226.067 16.565 C 226.019 16.692,225.758 16.840,225.489 16.894 C 225.205 16.951,225.000 17.098,225.000 17.246 C 225.000 17.386,224.893 17.500,224.763 17.500 C 224.633 17.500,224.477 17.725,224.417 18.000 C 224.356 18.275,224.200 18.500,224.070 18.500 C 223.940 18.500,223.833 18.650,223.833 18.833 C 223.833 19.019,223.722 19.167,223.583 19.167 C 223.417 19.167,223.333 19.333,223.333 19.667 C 223.333 19.981,223.248 20.167,223.103 20.167 C 222.852 20.167,222.673 20.660,222.669 21.357 C 222.668 21.599,222.554 21.841,222.417 21.894 C 222.207 21.974,222.167 22.477,222.167 24.995 C 222.167 27.555,222.204 28.000,222.417 28.000 C 222.578 28.000,222.667 28.163,222.669 28.458 C 222.672 29.172,222.850 29.667,223.103 29.667 C 223.248 29.667,223.333 29.852,223.333 30.167 C 223.333 30.500,223.417 30.667,223.583 30.667 C 223.722 30.667,223.833 30.815,223.833 31.000 C 223.833 31.183,223.940 31.333,224.070 31.333 C 224.200 31.333,224.356 31.558,224.417 31.833 C 224.477 32.108,224.624 32.333,224.744 32.333 C 224.863 32.333,225.000 32.483,225.048 32.667 C 225.106 32.887,225.276 33.000,225.550 33.000 C 225.778 33.000,226.008 33.112,226.060 33.250 C 226.113 33.387,226.271 33.500,226.411 33.500 C 226.552 33.500,226.667 33.612,226.667 33.750 C 226.667 33.914,226.831 34.000,227.147 34.000 C 227.488 34.000,227.653 34.097,227.715 34.333 C 227.786 34.604,227.942 34.667,228.550 34.667 C 229.061 34.667,229.328 34.746,229.394 34.917 C 229.475 35.129,230.070 35.167,233.328 35.167 C 236.629 35.167,237.167 35.132,237.167 34.917 C 237.167 34.728,237.370 34.667,238.000 34.667 C 238.722 34.667,238.833 34.622,238.833 34.333 C 238.833 34.063,238.944 34.000,239.417 34.000 C 239.824 34.000,240.000 33.925,240.000 33.750 C 240.000 33.583,240.167 33.500,240.500 33.500 C 240.815 33.500,241.000 33.415,241.000 33.269 C 241.000 33.143,241.150 33.000,241.333 32.952 C 241.517 32.904,241.667 32.745,241.667 32.599 C 241.667 32.453,241.779 32.333,241.917 32.333 C 242.054 32.333,242.167 32.221,242.167 32.083 C 242.167 31.946,242.279 31.833,242.417 31.833 C 242.554 31.833,242.667 31.721,242.667 31.583 C 242.667 31.446,242.771 31.333,242.899 31.333 C 243.154 31.333,243.333 30.983,243.333 30.486 C 243.333 30.311,243.446 30.167,243.583 30.167 C 243.772 30.167,243.833 29.963,243.833 29.333 C 243.833 28.704,243.894 28.500,244.083 28.500 C 244.298 28.500,244.333 27.963,244.333 24.667 C 244.333 21.370,244.298 20.833,244.083 20.833 C 243.909 20.833,243.833 20.657,243.833 20.250 C 243.833 19.843,243.758 19.667,243.583 19.667 C 243.428 19.667,243.333 19.509,243.333 19.251 C 243.333 19.017,243.188 18.746,243.000 18.628 C 242.817 18.513,242.667 18.325,242.667 18.210 C 242.667 18.094,242.554 18.000,242.417 18.000 C 242.279 18.000,242.167 17.887,242.167 17.750 C 242.167 17.612,242.063 17.500,241.936 17.500 C 241.809 17.500,241.666 17.350,241.618 17.167 C 241.570 16.983,241.412 16.833,241.266 16.833 C 241.120 16.833,241.000 16.721,241.000 16.583 C 241.000 16.417,240.833 16.333,240.500 16.333 C 240.167 16.333,240.000 16.250,240.000 16.083 C 240.000 15.909,239.824 15.833,239.417 15.833 C 238.944 15.833,238.833 15.770,238.833 15.500 C 238.833 15.230,238.722 15.167,238.250 15.167 C 237.843 15.167,237.667 15.091,237.667 14.917 C 237.667 14.701,237.101 14.667,233.578 14.667 C 230.098 14.667,229.475 14.704,229.394 14.917 M257.667 14.917 C 257.667 15.078,257.504 15.167,257.208 15.169 C 256.495 15.172,256.000 15.350,256.000 15.603 C 256.000 15.730,255.887 15.833,255.750 15.833 C 255.612 15.833,255.500 15.946,255.500 16.083 C 255.500 16.221,255.387 16.333,255.250 16.333 C 255.112 16.333,255.000 16.437,255.000 16.564 C 255.000 16.691,254.850 16.834,254.667 16.882 C 254.364 16.961,254.333 16.887,254.333 16.065 L 254.333 15.160 250.542 15.205 L 246.750 15.250 246.707 24.961 L 246.664 34.672 250.790 34.628 L 254.917 34.583 254.961 29.042 C 254.998 24.269,255.039 23.500,255.252 23.500 C 255.438 23.500,255.500 23.293,255.500 22.667 C 255.500 22.037,255.561 21.833,255.750 21.833 C 255.887 21.833,256.000 21.721,256.000 21.583 C 256.000 21.409,256.176 21.333,256.583 21.333 C 256.991 21.333,257.167 21.258,257.167 21.083 C 257.167 20.946,257.271 20.833,257.399 20.833 C 257.527 20.833,257.674 20.946,257.727 21.083 C 257.783 21.229,258.033 21.333,258.328 21.333 C 258.666 21.333,258.833 21.416,258.833 21.583 C 258.833 21.721,258.946 21.833,259.083 21.833 C 259.301 21.833,259.333 22.657,259.333 28.250 L 259.333 34.667 263.500 34.667 L 267.667 34.667 267.667 26.917 C 267.667 20.139,267.635 19.167,267.417 19.167 C 267.231 19.167,267.167 18.970,267.167 18.401 C 267.167 17.776,267.106 17.620,266.833 17.548 C 266.649 17.500,266.500 17.321,266.500 17.147 C 266.500 16.975,266.387 16.833,266.250 16.833 C 266.112 16.833,266.000 16.721,266.000 16.583 C 266.000 16.446,265.887 16.333,265.750 16.333 C 265.612 16.333,265.500 16.221,265.500 16.083 C 265.500 15.944,265.352 15.833,265.167 15.833 C 264.944 15.833,264.833 15.722,264.833 15.500 C 264.833 15.241,264.722 15.167,264.333 15.167 C 264.000 15.167,263.833 15.083,263.833 14.917 C 263.833 14.703,263.380 14.667,260.750 14.667 C 258.120 14.667,257.667 14.703,257.667 14.917 M163.444 15.278 C 163.151 15.571,163.331 16.833,163.667 16.833 C 163.956 16.833,164.000 16.944,164.000 17.667 C 164.000 18.296,164.061 18.500,164.250 18.500 C 164.425 18.500,164.500 18.676,164.500 19.083 C 164.500 19.491,164.575 19.667,164.750 19.667 C 164.923 19.667,165.000 19.841,165.000 20.236 C 165.000 20.971,165.144 21.333,165.434 21.333 C 165.582 21.333,165.667 21.518,165.667 21.839 C 165.667 22.134,165.771 22.384,165.917 22.440 C 166.059 22.494,166.167 22.743,166.167 23.018 C 166.167 23.335,166.252 23.500,166.417 23.500 C 166.606 23.500,166.667 23.704,166.667 24.333 C 166.667 25.056,166.711 25.167,167.000 25.167 C 167.270 25.167,167.333 25.278,167.333 25.750 C 167.333 26.157,167.409 26.333,167.583 26.333 C 167.769 26.333,167.833 26.528,167.833 27.089 C 167.833 27.606,167.912 27.874,168.083 27.940 C 168.226 27.994,168.333 28.243,168.333 28.518 C 168.333 28.889,168.410 29.000,168.667 29.000 C 168.956 29.000,169.000 29.111,169.000 29.833 C 169.000 30.463,169.061 30.667,169.250 30.667 C 169.425 30.667,169.500 30.843,169.500 31.250 C 169.500 31.657,169.575 31.833,169.750 31.833 C 169.925 31.833,170.000 32.009,170.000 32.417 C 170.000 32.889,170.063 33.000,170.333 33.000 C 170.622 33.000,170.667 33.111,170.667 33.833 L 170.667 34.667 174.500 34.667 C 178.222 34.667,178.333 34.657,178.333 34.333 C 178.333 34.148,178.444 34.000,178.583 34.000 C 178.738 34.000,178.833 33.843,178.833 33.589 C 178.833 33.349,178.972 33.104,179.167 33.000 C 179.424 32.862,179.500 32.651,179.500 32.077 C 179.500 31.527,179.565 31.333,179.750 31.333 C 179.925 31.333,180.000 31.157,180.000 30.750 C 180.000 30.343,180.075 30.167,180.250 30.167 C 180.439 30.167,180.500 29.963,180.500 29.333 C 180.500 28.611,180.544 28.500,180.833 28.500 C 181.103 28.500,181.167 28.389,181.167 27.917 C 181.167 27.509,181.242 27.333,181.417 27.333 C 181.583 27.333,181.667 27.167,181.667 26.833 C 181.667 26.500,181.750 26.333,181.917 26.333 C 182.106 26.333,182.167 26.130,182.167 25.500 C 182.167 24.778,182.211 24.667,182.500 24.667 C 182.770 24.667,182.833 24.556,182.833 24.083 C 182.833 23.676,182.909 23.500,183.083 23.500 C 183.258 23.500,183.333 23.324,183.333 22.917 C 183.333 22.509,183.409 22.333,183.583 22.333 C 183.768 22.333,183.833 22.141,183.833 21.603 C 183.833 21.012,183.897 20.855,184.167 20.785 C 184.409 20.722,184.500 20.558,184.500 20.182 C 184.500 19.835,184.582 19.667,184.750 19.667 C 184.925 19.667,185.000 19.491,185.000 19.083 C 185.000 18.676,185.075 18.500,185.250 18.500 C 185.439 18.500,185.500 18.296,185.500 17.667 C 185.500 16.937,185.543 16.833,185.842 16.833 C 186.147 16.833,186.179 16.746,186.134 16.042 L 186.083 15.250 181.958 15.205 L 177.833 15.161 177.833 15.997 C 177.833 16.629,177.772 16.833,177.583 16.833 C 177.395 16.833,177.333 17.035,177.333 17.647 C 177.333 18.321,177.276 18.476,177.000 18.548 C 176.728 18.620,176.667 18.776,176.667 19.401 C 176.667 19.970,176.603 20.167,176.417 20.167 C 176.228 20.167,176.167 20.370,176.167 21.000 C 176.167 21.630,176.106 21.833,175.917 21.833 C 175.729 21.833,175.667 22.035,175.667 22.647 C 175.667 23.321,175.609 23.476,175.333 23.548 C 175.061 23.620,175.000 23.776,175.000 24.401 C 175.000 24.970,174.936 25.167,174.750 25.167 C 174.565 25.167,174.500 24.972,174.500 24.411 C 174.500 23.894,174.421 23.626,174.250 23.560 C 174.098 23.502,174.000 23.250,174.000 22.920 C 174.000 22.031,173.808 21.333,173.563 21.333 C 173.399 21.333,173.333 21.096,173.333 20.500 C 173.333 19.870,173.272 19.667,173.083 19.667 C 172.894 19.667,172.833 19.463,172.833 18.833 C 172.833 18.204,172.772 18.000,172.583 18.000 C 172.397 18.000,172.333 17.804,172.333 17.234 C 172.333 16.609,172.272 16.453,172.000 16.382 C 171.750 16.316,171.667 16.154,171.667 15.731 L 171.667 15.167 167.611 15.167 C 165.381 15.167,163.506 15.217,163.444 15.278 M150.411 18.000 C 150.614 18.000,150.667 18.221,150.667 19.083 C 150.667 19.935,150.720 20.167,150.917 20.167 C 151.106 20.167,151.167 20.370,151.167 21.000 C 151.167 21.630,151.228 21.833,151.417 21.833 C 151.578 21.833,151.667 21.996,151.669 22.292 C 151.670 22.544,151.716 22.919,151.772 23.125 C 151.872 23.499,151.866 23.500,149.853 23.500 C 148.169 23.500,147.833 23.458,147.833 23.250 C 147.833 23.113,147.946 23.000,148.083 23.000 C 148.271 23.000,148.333 22.798,148.333 22.186 C 148.333 21.512,148.391 21.357,148.667 21.285 C 148.953 21.210,149.000 21.058,149.000 20.200 C 149.000 19.467,149.066 19.177,149.250 19.106 C 149.420 19.041,149.500 18.774,149.500 18.269 C 149.500 17.490,149.823 17.143,150.036 17.692 C 150.102 17.862,150.271 18.000,150.411 18.000 M233.882 20.500 C 233.945 20.743,234.109 20.833,234.484 20.833 C 234.832 20.833,235.000 20.915,235.000 21.083 C 235.000 21.221,235.112 21.333,235.250 21.333 C 235.387 21.333,235.500 21.446,235.500 21.583 C 235.500 21.721,235.612 21.833,235.750 21.833 C 235.938 21.833,236.000 22.036,236.000 22.653 C 236.000 23.628,236.120 24.000,236.434 24.000 C 236.605 24.000,236.667 24.244,236.667 24.917 C 236.667 25.589,236.605 25.833,236.434 25.833 C 236.120 25.833,236.000 26.205,236.000 27.180 C 236.000 27.798,235.938 28.000,235.750 28.000 C 235.612 28.000,235.500 28.113,235.500 28.250 C 235.500 28.387,235.387 28.500,235.250 28.500 C 235.112 28.500,235.000 28.604,235.000 28.731 C 235.000 28.864,234.751 29.010,234.417 29.072 C 234.067 29.138,233.833 29.279,233.833 29.424 C 233.833 29.828,232.726 29.745,232.618 29.333 C 232.559 29.108,232.391 29.000,232.099 29.000 C 231.826 29.000,231.667 28.908,231.667 28.750 C 231.667 28.611,231.519 28.500,231.333 28.500 C 231.074 28.500,231.000 28.389,231.000 28.000 C 231.000 27.667,230.917 27.500,230.750 27.500 C 230.539 27.500,230.500 27.111,230.500 25.000 C 230.500 22.889,230.539 22.500,230.750 22.500 C 230.925 22.500,231.000 22.324,231.000 21.917 C 231.000 21.378,231.039 21.333,231.505 21.333 C 231.801 21.333,232.050 21.229,232.106 21.083 C 232.159 20.946,232.307 20.833,232.434 20.833 C 232.562 20.833,232.667 20.683,232.667 20.500 C 232.667 20.232,232.778 20.167,233.231 20.167 C 233.654 20.167,233.816 20.250,233.882 20.500 M199.500 27.417 C 199.500 27.829,199.425 28.000,199.245 28.000 C 199.104 28.000,198.946 28.113,198.894 28.250 C 198.841 28.387,198.693 28.500,198.566 28.500 C 198.438 28.500,198.333 28.605,198.333 28.734 C 198.333 28.889,198.051 29.008,197.500 29.083 C 196.949 29.159,196.667 29.277,196.667 29.432 C 196.667 29.589,196.473 29.667,196.083 29.667 C 195.690 29.667,195.500 29.589,195.500 29.430 C 195.500 29.300,195.275 29.144,195.000 29.083 C 194.584 28.992,194.500 28.892,194.500 28.487 C 194.500 28.057,194.559 28.000,195.000 28.000 C 195.389 28.000,195.500 27.926,195.500 27.667 C 195.500 27.365,195.611 27.333,196.667 27.333 C 197.593 27.333,197.833 27.282,197.833 27.083 C 197.833 26.894,198.037 26.833,198.667 26.833 L 199.500 26.833 199.500 27.417 M144.875 51.068 C 144.669 51.286,144.500 51.659,144.500 51.898 C 144.500 52.174,144.408 52.333,144.250 52.333 C 144.061 52.333,144.000 52.537,144.000 53.167 C 144.000 53.772,143.936 54.000,143.766 54.000 C 143.611 54.000,143.492 54.283,143.417 54.833 C 143.341 55.384,143.223 55.667,143.068 55.667 C 142.898 55.667,142.833 55.895,142.833 56.500 C 142.833 57.130,142.772 57.333,142.583 57.333 C 142.409 57.333,142.333 57.509,142.333 57.917 C 142.333 58.324,142.258 58.500,142.083 58.500 C 141.922 58.500,141.833 58.663,141.831 58.958 C 141.828 59.672,141.650 60.167,141.397 60.167 C 141.232 60.167,141.167 60.402,141.167 61.000 C 141.167 61.630,141.106 61.833,140.917 61.833 C 140.728 61.833,140.667 62.037,140.667 62.667 C 140.667 63.296,140.606 63.500,140.417 63.500 C 140.252 63.500,140.167 63.665,140.167 63.981 C 140.167 64.321,140.069 64.487,139.833 64.548 C 139.561 64.620,139.500 64.776,139.500 65.401 C 139.500 65.970,139.436 66.167,139.250 66.167 C 139.061 66.167,139.000 66.370,139.000 67.000 C 139.000 67.630,138.939 67.833,138.750 67.833 C 138.577 67.833,138.500 68.007,138.500 68.397 C 138.500 68.821,138.417 68.983,138.167 69.048 C 137.894 69.120,137.833 69.276,137.833 69.901 C 137.833 70.470,137.769 70.667,137.583 70.667 C 137.394 70.667,137.333 70.870,137.333 71.500 C 137.333 72.130,137.272 72.333,137.083 72.333 C 136.894 72.333,136.833 72.537,136.833 73.167 C 136.833 73.889,136.789 74.000,136.500 74.000 C 136.240 74.000,136.167 74.111,136.167 74.505 C 136.167 74.801,136.063 75.050,135.917 75.106 C 135.731 75.178,135.667 75.474,135.667 76.268 L 135.667 77.333 140.083 77.333 C 144.389 77.333,144.500 77.325,144.500 77.000 C 144.500 76.815,144.611 76.667,144.750 76.667 C 144.938 76.667,145.000 76.465,145.000 75.853 C 145.000 75.179,145.057 75.024,145.333 74.952 C 145.621 74.877,145.667 74.724,145.667 73.849 L 145.667 72.833 149.833 72.833 L 154.000 72.833 154.000 73.667 C 154.000 74.296,154.061 74.500,154.250 74.500 C 154.439 74.500,154.500 74.704,154.500 75.333 C 154.500 75.947,154.563 76.167,154.739 76.167 C 154.888 76.167,154.999 76.373,155.031 76.708 L 155.083 77.250 159.792 77.294 L 164.500 77.339 164.500 76.503 C 164.500 75.871,164.439 75.667,164.250 75.667 C 164.077 75.667,164.000 75.492,164.000 75.097 C 164.000 74.363,163.856 74.000,163.566 74.000 C 163.411 74.000,163.333 73.804,163.333 73.417 C 163.333 73.009,163.258 72.833,163.083 72.833 C 162.894 72.833,162.833 72.630,162.833 72.000 C 162.833 71.370,162.772 71.167,162.583 71.167 C 162.397 71.167,162.333 70.970,162.333 70.401 C 162.333 69.776,162.272 69.620,162.000 69.548 C 161.724 69.476,161.667 69.321,161.667 68.647 C 161.667 68.035,161.605 67.833,161.417 67.833 C 161.252 67.833,161.167 67.669,161.167 67.351 C 161.167 67.076,161.059 66.828,160.917 66.773 C 160.745 66.707,160.667 66.439,160.667 65.922 C 160.667 65.278,160.618 65.167,160.333 65.167 C 160.044 65.167,160.000 65.056,160.000 64.333 C 160.000 63.704,159.939 63.500,159.750 63.500 C 159.561 63.500,159.500 63.296,159.500 62.667 C 159.500 62.037,159.439 61.833,159.250 61.833 C 159.075 61.833,159.000 61.657,159.000 61.250 C 159.000 60.778,158.937 60.667,158.667 60.667 C 158.378 60.667,158.333 60.556,158.333 59.833 C 158.333 59.204,158.272 59.000,158.083 59.000 C 157.898 59.000,157.833 58.805,157.833 58.245 C 157.833 57.727,157.755 57.459,157.583 57.394 C 157.431 57.335,157.333 57.083,157.333 56.746 C 157.333 56.029,157.188 55.667,156.899 55.667 C 156.745 55.667,156.667 55.471,156.667 55.083 C 156.667 54.676,156.591 54.500,156.417 54.500 C 156.231 54.500,156.167 54.305,156.167 53.745 C 156.167 53.227,156.088 52.959,155.917 52.894 C 155.752 52.831,155.667 52.570,155.667 52.133 C 155.667 51.609,155.596 51.450,155.333 51.382 C 155.149 51.333,155.000 51.154,155.000 50.981 C 155.000 50.680,154.789 50.667,150.125 50.670 L 145.250 50.672 144.875 51.068 M267.667 53.417 L 267.667 56.167 271.833 56.167 L 276.000 56.167 276.000 53.417 L 276.000 50.667 271.833 50.667 L 267.667 50.667 267.667 53.417 M292.667 56.250 C 292.667 56.782,292.709 56.833,293.149 56.833 C 293.671 56.833,293.907 56.494,293.743 55.977 C 293.543 55.347,292.667 55.570,292.667 56.250 M175.060 57.583 C 175.008 57.721,174.860 57.833,174.732 57.833 C 174.604 57.833,174.500 57.983,174.500 58.167 C 174.500 58.361,174.389 58.500,174.234 58.500 C 174.088 58.500,173.930 58.350,173.882 58.167 C 173.798 57.846,173.654 57.833,169.981 57.833 L 166.167 57.833 166.167 67.583 L 166.167 77.333 165.583 77.333 C 165.046 77.333,165.000 77.373,165.000 77.833 C 165.000 78.322,165.019 78.333,165.833 78.333 C 166.647 78.333,166.667 78.322,166.667 77.837 L 166.667 77.340 170.292 77.295 L 173.917 77.250 173.962 73.421 C 173.999 70.247,174.049 69.569,174.253 69.455 C 174.448 69.346,174.500 68.930,174.500 67.492 C 174.500 65.981,174.543 65.667,174.750 65.667 C 174.925 65.667,175.000 65.491,175.000 65.083 C 175.000 64.671,175.075 64.500,175.255 64.500 C 175.396 64.500,175.554 64.387,175.606 64.250 C 175.661 64.107,175.910 64.000,176.184 64.000 C 176.502 64.000,176.667 63.915,176.667 63.750 C 176.667 63.611,176.815 63.500,177.000 63.500 C 177.185 63.500,177.333 63.611,177.333 63.750 C 177.333 63.947,177.565 64.000,178.417 64.000 C 179.389 64.000,179.500 63.966,179.500 63.667 C 179.500 63.481,179.611 63.333,179.750 63.333 C 179.917 63.333,180.000 63.167,180.000 62.833 C 180.000 62.500,180.083 62.333,180.250 62.333 C 180.423 62.333,180.500 62.160,180.500 61.769 C 180.500 61.346,180.583 61.184,180.833 61.118 C 181.106 61.047,181.167 60.891,181.167 60.266 C 181.167 59.684,181.229 59.500,181.426 59.500 C 181.631 59.500,181.674 59.335,181.634 58.708 L 181.583 57.917 180.792 57.866 C 180.236 57.830,180.000 57.743,180.000 57.574 C 180.000 57.209,175.200 57.218,175.060 57.583 M193.894 57.583 C 193.839 57.726,193.590 57.833,193.316 57.833 C 192.944 57.833,192.833 57.910,192.833 58.167 C 192.833 58.389,192.722 58.500,192.500 58.500 C 192.315 58.500,192.167 58.611,192.167 58.750 C 192.167 58.917,192.000 59.000,191.667 59.000 C 191.206 59.000,191.167 58.954,191.167 58.413 L 191.167 57.827 187.542 57.872 L 183.917 57.917 183.917 67.583 L 183.917 77.250 187.792 77.295 L 191.667 77.339 191.667 71.753 C 191.667 66.898,191.699 66.167,191.917 66.167 C 192.106 66.167,192.167 65.963,192.167 65.333 C 192.167 64.611,192.211 64.500,192.500 64.500 C 192.685 64.500,192.833 64.389,192.833 64.250 C 192.833 64.083,193.000 64.000,193.333 64.000 C 193.667 64.000,193.833 63.917,193.833 63.750 C 193.833 63.611,193.981 63.500,194.167 63.500 C 194.352 63.500,194.500 63.611,194.500 63.750 C 194.500 63.887,194.612 64.000,194.750 64.000 C 194.887 64.000,195.000 64.112,195.000 64.250 C 195.000 64.387,195.112 64.500,195.250 64.500 C 195.387 64.500,195.500 64.612,195.500 64.750 C 195.500 64.889,195.648 65.000,195.833 65.000 C 196.161 65.000,196.167 65.111,196.167 71.167 L 196.167 77.333 200.000 77.333 L 203.833 77.333 203.833 72.333 C 203.833 68.187,203.873 67.333,204.064 67.333 C 204.368 67.333,204.495 66.811,204.498 65.542 C 204.500 64.728,204.555 64.500,204.750 64.500 C 204.887 64.500,205.000 64.387,205.000 64.250 C 205.000 64.083,205.167 64.000,205.505 64.000 C 205.801 64.000,206.050 63.896,206.106 63.750 C 206.159 63.612,206.307 63.500,206.434 63.500 C 206.562 63.500,206.667 63.612,206.667 63.750 C 206.667 63.887,206.771 64.000,206.899 64.000 C 207.027 64.000,207.174 64.112,207.227 64.250 C 207.280 64.387,207.438 64.500,207.578 64.500 C 207.718 64.500,207.833 64.612,207.833 64.750 C 207.833 64.887,207.946 65.000,208.083 65.000 C 208.301 65.000,208.333 65.796,208.333 71.167 L 208.333 77.333 212.236 77.333 C 214.383 77.333,216.258 77.288,216.403 77.232 C 216.793 77.082,216.807 63.500,216.417 63.500 C 216.225 63.500,216.167 63.289,216.167 62.604 C 216.167 61.386,216.004 60.667,215.729 60.667 C 215.578 60.667,215.500 60.467,215.500 60.083 C 215.500 59.676,215.425 59.500,215.250 59.500 C 215.112 59.500,215.000 59.387,215.000 59.250 C 215.000 59.112,214.896 59.000,214.768 59.000 C 214.640 59.000,214.492 58.887,214.440 58.750 C 214.387 58.612,214.229 58.500,214.089 58.500 C 213.944 58.500,213.833 58.355,213.833 58.167 C 213.833 57.907,213.722 57.833,213.328 57.833 C 213.033 57.833,212.783 57.729,212.727 57.583 C 212.646 57.373,212.118 57.333,209.399 57.333 C 206.637 57.333,206.167 57.370,206.167 57.583 C 206.167 57.758,205.991 57.833,205.583 57.833 C 205.111 57.833,205.000 57.897,205.000 58.167 C 205.000 58.352,204.889 58.500,204.750 58.500 C 204.612 58.500,204.500 58.612,204.500 58.750 C 204.500 58.917,204.333 59.000,203.995 59.000 C 203.699 59.000,203.450 59.104,203.394 59.250 C 203.341 59.387,203.193 59.500,203.066 59.500 C 202.938 59.500,202.833 59.387,202.833 59.250 C 202.833 59.111,202.685 59.000,202.500 59.000 C 202.315 59.000,202.167 58.889,202.167 58.750 C 202.167 58.612,202.054 58.500,201.917 58.500 C 201.778 58.500,201.667 58.352,201.667 58.167 C 201.667 57.897,201.556 57.833,201.083 57.833 C 200.676 57.833,200.500 57.758,200.500 57.583 C 200.500 57.370,200.027 57.333,197.245 57.333 C 194.505 57.333,193.974 57.373,193.894 57.583 M225.500 57.583 C 225.500 57.772,225.296 57.833,224.667 57.833 C 223.944 57.833,223.833 57.878,223.833 58.167 C 223.833 58.423,223.722 58.500,223.351 58.500 C 223.076 58.500,222.828 58.607,222.773 58.750 C 222.717 58.896,222.467 59.000,222.172 59.000 C 221.834 59.000,221.667 59.083,221.667 59.250 C 221.667 59.387,221.554 59.500,221.417 59.500 C 221.278 59.500,221.167 59.648,221.167 59.833 C 221.167 60.056,221.056 60.167,220.833 60.167 C 220.648 60.167,220.500 60.278,220.500 60.417 C 220.500 60.554,220.387 60.667,220.250 60.667 C 220.075 60.667,220.000 60.843,220.000 61.250 C 220.000 61.657,219.925 61.833,219.750 61.833 C 219.583 61.833,219.500 62.000,219.500 62.333 C 219.500 62.722,219.426 62.833,219.167 62.833 C 218.897 62.833,218.833 62.944,218.833 63.417 C 218.833 63.824,218.758 64.000,218.583 64.000 C 218.369 64.000,218.333 64.509,218.333 67.583 C 218.333 70.657,218.369 71.167,218.583 71.167 C 218.769 71.167,218.833 71.363,218.833 71.932 C 218.833 72.558,218.894 72.714,219.167 72.785 C 219.350 72.833,219.500 72.976,219.500 73.103 C 219.500 73.230,219.612 73.333,219.750 73.333 C 219.925 73.333,220.000 73.509,220.000 73.917 C 220.000 74.324,220.075 74.500,220.250 74.500 C 220.387 74.500,220.500 74.612,220.500 74.750 C 220.500 74.889,220.648 75.000,220.833 75.000 C 221.056 75.000,221.167 75.111,221.167 75.333 C 221.167 75.519,221.278 75.667,221.417 75.667 C 221.554 75.667,221.667 75.779,221.667 75.917 C 221.667 76.054,221.779 76.167,221.917 76.167 C 222.054 76.167,222.167 76.279,222.167 76.417 C 222.167 76.590,222.340 76.667,222.731 76.667 C 223.154 76.667,223.316 76.750,223.382 77.000 C 223.453 77.272,223.609 77.333,224.234 77.333 C 224.804 77.333,225.000 77.397,225.000 77.583 C 225.000 77.799,225.602 77.833,229.417 77.833 C 233.231 77.833,233.833 77.799,233.833 77.583 C 233.833 77.394,234.037 77.333,234.667 77.333 C 235.389 77.333,235.500 77.289,235.500 77.000 C 235.500 76.730,235.611 76.667,236.083 76.667 C 236.491 76.667,236.667 76.591,236.667 76.417 C 236.667 76.250,236.833 76.167,237.167 76.167 C 237.481 76.167,237.667 76.081,237.667 75.936 C 237.667 75.809,237.817 75.666,238.000 75.618 C 238.183 75.570,238.333 75.412,238.333 75.266 C 238.333 75.120,238.446 75.000,238.583 75.000 C 238.750 75.000,238.833 74.833,238.833 74.500 C 238.833 74.167,238.917 74.000,239.083 74.000 C 239.222 74.000,239.333 73.852,239.333 73.667 C 239.333 73.444,239.444 73.333,239.667 73.333 C 239.926 73.333,240.000 73.222,240.000 72.833 C 240.000 72.500,240.083 72.333,240.250 72.333 C 240.425 72.333,240.500 72.157,240.500 71.750 L 240.500 71.167 239.667 71.167 C 239.037 71.167,238.833 71.106,238.833 70.917 C 238.833 70.703,238.352 70.667,235.500 70.667 C 232.648 70.667,232.167 70.703,232.167 70.917 C 232.167 71.054,232.054 71.167,231.917 71.167 C 231.779 71.167,231.667 71.279,231.667 71.417 C 231.667 71.590,231.492 71.667,231.097 71.667 C 230.363 71.667,230.000 71.810,230.000 72.101 C 230.000 72.255,229.804 72.333,229.417 72.333 C 228.944 72.333,228.833 72.270,228.833 72.000 C 228.833 71.730,228.722 71.667,228.250 71.667 C 227.843 71.667,227.667 71.591,227.667 71.417 C 227.667 71.279,227.554 71.167,227.417 71.167 C 227.250 71.167,227.167 71.000,227.167 70.667 C 227.167 70.333,227.083 70.167,226.917 70.167 C 226.778 70.167,226.667 70.019,226.667 69.833 C 226.667 69.505,226.778 69.500,233.833 69.500 L 241.000 69.500 241.000 67.583 C 241.000 65.991,240.958 65.667,240.750 65.667 C 240.553 65.667,240.500 65.435,240.500 64.583 C 240.500 63.731,240.447 63.500,240.250 63.500 C 240.061 63.500,240.000 63.296,240.000 62.667 C 240.000 61.944,239.956 61.833,239.667 61.833 C 239.444 61.833,239.333 61.722,239.333 61.500 C 239.333 61.315,239.222 61.167,239.083 61.167 C 238.917 61.167,238.833 61.000,238.833 60.667 C 238.833 60.352,238.748 60.167,238.603 60.167 C 238.476 60.167,238.333 60.017,238.285 59.833 C 238.237 59.650,238.078 59.500,237.932 59.500 C 237.786 59.500,237.667 59.387,237.667 59.250 C 237.667 59.083,237.500 59.000,237.167 59.000 C 236.833 59.000,236.667 58.917,236.667 58.750 C 236.667 58.575,236.491 58.500,236.083 58.500 C 235.611 58.500,235.500 58.437,235.500 58.167 C 235.500 57.878,235.389 57.833,234.667 57.833 C 234.037 57.833,233.833 57.772,233.833 57.583 C 233.833 57.368,233.259 57.333,229.667 57.333 C 226.074 57.333,225.500 57.368,225.500 57.583 M253.833 57.583 C 253.833 57.769,253.637 57.833,253.068 57.833 C 252.442 57.833,252.286 57.894,252.215 58.167 C 252.167 58.350,252.024 58.500,251.897 58.500 C 251.770 58.500,251.667 58.612,251.667 58.750 C 251.667 58.889,251.519 59.000,251.333 59.000 C 251.148 59.000,251.000 59.111,251.000 59.250 C 251.000 59.387,250.887 59.500,250.750 59.500 C 250.561 59.500,250.500 59.296,250.500 58.664 L 250.500 57.827 246.625 57.872 L 242.750 57.917 242.707 67.489 C 242.673 75.037,242.708 77.090,242.874 77.195 C 242.989 77.268,244.865 77.329,247.042 77.331 L 251.000 77.333 251.000 71.769 C 251.000 66.346,251.008 66.203,251.333 66.118 C 251.606 66.047,251.667 65.891,251.667 65.266 C 251.667 64.696,251.731 64.500,251.917 64.500 C 252.054 64.500,252.167 64.387,252.167 64.250 C 252.167 64.085,252.331 64.000,252.649 64.000 C 252.924 64.000,253.172 63.893,253.227 63.750 C 253.280 63.612,253.438 63.500,253.578 63.500 C 253.718 63.500,253.833 63.612,253.833 63.750 C 253.833 63.925,254.009 64.000,254.417 64.000 C 254.824 64.000,255.000 64.075,255.000 64.250 C 255.000 64.387,255.112 64.500,255.250 64.500 C 255.468 64.500,255.500 65.324,255.500 70.920 L 255.500 77.339 259.625 77.295 L 263.750 77.250 263.793 69.610 C 263.836 62.079,263.832 61.968,263.502 61.882 C 263.224 61.809,263.167 61.656,263.167 60.981 C 263.167 60.368,263.105 60.167,262.917 60.167 C 262.778 60.167,262.667 60.019,262.667 59.833 C 262.667 59.648,262.556 59.500,262.417 59.500 C 262.279 59.500,262.167 59.387,262.167 59.250 C 262.167 59.111,262.019 59.000,261.833 59.000 C 261.648 59.000,261.500 58.889,261.500 58.750 C 261.500 58.612,261.387 58.500,261.250 58.500 C 261.111 58.500,261.000 58.352,261.000 58.167 C 261.000 57.897,260.889 57.833,260.417 57.833 C 260.009 57.833,259.833 57.758,259.833 57.583 C 259.833 57.370,259.389 57.333,256.833 57.333 C 254.278 57.333,253.833 57.370,253.833 57.583 M284.333 57.583 C 284.333 57.772,284.130 57.833,283.500 57.833 C 282.778 57.833,282.667 57.878,282.667 58.167 C 282.667 58.437,282.556 58.500,282.083 58.500 C 281.676 58.500,281.500 58.575,281.500 58.750 C 281.500 58.887,281.387 59.000,281.250 59.000 C 281.112 59.000,281.000 59.112,281.000 59.250 C 281.000 59.387,280.887 59.500,280.750 59.500 C 280.611 59.500,280.500 59.648,280.500 59.833 C 280.500 60.056,280.389 60.167,280.167 60.167 C 279.907 60.167,279.833 60.278,279.833 60.667 C 279.833 61.000,279.750 61.167,279.583 61.167 C 279.409 61.167,279.333 61.343,279.333 61.750 C 279.333 62.157,279.258 62.333,279.083 62.333 C 278.887 62.333,278.833 62.565,278.833 63.417 L 278.833 64.500 279.667 64.500 C 280.296 64.500,280.500 64.561,280.500 64.750 C 280.500 64.963,280.944 65.000,283.500 65.000 C 286.056 65.000,286.500 64.963,286.500 64.750 C 286.500 64.611,286.648 64.500,286.833 64.500 C 287.019 64.500,287.167 64.389,287.167 64.250 C 287.167 64.112,287.279 64.000,287.417 64.000 C 287.554 64.000,287.667 63.896,287.667 63.769 C 287.667 63.636,287.916 63.490,288.250 63.428 C 288.599 63.362,288.833 63.221,288.833 63.076 C 288.833 62.896,289.049 62.833,289.667 62.833 C 290.276 62.833,290.500 62.897,290.500 63.070 C 290.500 63.200,290.725 63.356,291.000 63.417 C 291.697 63.570,291.756 64.500,291.068 64.500 C 290.776 64.500,290.607 64.608,290.548 64.833 C 290.476 65.109,290.321 65.167,289.647 65.167 C 289.035 65.167,288.833 65.229,288.833 65.417 C 288.833 65.619,288.565 65.667,287.417 65.667 C 286.269 65.667,286.000 65.714,286.000 65.917 C 286.000 66.118,285.743 66.167,284.684 66.167 C 283.669 66.167,283.347 66.224,283.273 66.417 C 283.213 66.572,282.959 66.667,282.602 66.667 C 281.863 66.667,281.500 66.810,281.500 67.101 C 281.500 67.248,281.316 67.333,281.000 67.333 C 280.667 67.333,280.500 67.417,280.500 67.583 C 280.500 67.722,280.352 67.833,280.167 67.833 C 279.981 67.833,279.833 67.944,279.833 68.083 C 279.833 68.221,279.721 68.333,279.583 68.333 C 279.444 68.333,279.333 68.481,279.333 68.667 C 279.333 68.852,279.222 69.000,279.083 69.000 C 278.919 69.000,278.833 69.165,278.833 69.481 C 278.833 69.821,278.736 69.987,278.500 70.048 C 278.189 70.130,278.167 70.276,278.167 72.250 C 278.167 74.224,278.189 74.370,278.500 74.452 C 278.737 74.514,278.833 74.679,278.833 75.025 C 278.833 75.303,278.940 75.551,279.083 75.606 C 279.221 75.659,279.333 75.807,279.333 75.934 C 279.333 76.062,279.446 76.167,279.583 76.167 C 279.721 76.167,279.833 76.279,279.833 76.417 C 279.833 76.556,279.981 76.667,280.167 76.667 C 280.350 76.667,280.500 76.770,280.500 76.897 C 280.500 77.150,280.995 77.328,281.708 77.331 C 282.004 77.333,282.167 77.422,282.167 77.583 C 282.167 77.797,282.639 77.833,285.422 77.833 C 288.162 77.833,288.692 77.794,288.773 77.583 C 288.839 77.413,289.106 77.333,289.617 77.333 C 290.224 77.333,290.381 77.271,290.452 77.000 C 290.513 76.764,290.679 76.667,291.019 76.667 C 291.335 76.667,291.500 76.581,291.500 76.417 C 291.500 76.279,291.604 76.167,291.732 76.167 C 291.860 76.167,292.008 76.054,292.060 75.917 C 292.278 75.348,292.648 75.661,292.699 76.458 L 292.750 77.250 296.542 77.295 L 300.333 77.340 300.333 76.248 C 300.333 75.431,300.270 75.132,300.083 75.060 C 299.867 74.977,299.833 74.109,299.833 68.649 C 299.833 63.146,299.801 62.333,299.583 62.333 C 299.395 62.333,299.333 62.132,299.333 61.519 C 299.333 60.846,299.276 60.691,299.000 60.618 C 298.773 60.559,298.667 60.391,298.667 60.094 C 298.667 59.853,298.554 59.613,298.417 59.560 C 298.279 59.508,298.167 59.360,298.167 59.232 C 298.167 59.104,298.054 59.000,297.917 59.000 C 297.779 59.000,297.667 58.887,297.667 58.750 C 297.667 58.575,297.491 58.500,297.083 58.500 C 296.611 58.500,296.500 58.437,296.500 58.167 C 296.500 57.878,296.389 57.833,295.667 57.833 C 295.037 57.833,294.833 57.772,294.833 57.583 C 294.833 57.366,294.139 57.333,289.583 57.333 C 285.028 57.333,284.333 57.366,284.333 57.583 M267.667 67.586 L 267.667 77.339 271.792 77.295 L 275.917 77.250 275.960 67.542 L 276.003 57.833 271.835 57.833 L 267.667 57.833 267.667 67.586 M150.000 60.266 C 150.000 60.412,150.150 60.570,150.333 60.618 C 150.623 60.694,150.667 60.846,150.667 61.769 C 150.667 62.604,150.721 62.833,150.917 62.833 C 151.101 62.833,151.167 63.027,151.167 63.575 C 151.167 64.021,151.256 64.370,151.392 64.450 C 151.515 64.523,151.664 64.940,151.722 65.375 L 151.827 66.167 149.830 66.167 C 147.901 66.167,147.205 65.943,148.083 65.606 C 148.253 65.541,148.333 65.275,148.333 64.775 C 148.333 64.179,148.397 64.022,148.667 63.952 C 148.954 63.877,149.000 63.724,149.000 62.844 C 149.000 62.090,149.065 61.798,149.250 61.727 C 149.425 61.660,149.500 61.387,149.500 60.816 C 149.500 60.202,149.562 60.000,149.750 60.000 C 149.887 60.000,150.000 60.120,150.000 60.266 M230.500 63.066 C 230.500 63.320,230.850 63.500,231.347 63.500 C 231.523 63.500,231.667 63.612,231.667 63.750 C 231.667 63.887,231.779 64.000,231.917 64.000 C 232.082 64.000,232.167 64.165,232.167 64.488 C 232.167 64.812,232.264 65.001,232.458 65.052 C 232.619 65.094,231.381 65.137,229.708 65.147 C 226.771 65.166,226.667 65.155,226.667 64.833 C 226.667 64.648,226.778 64.500,226.917 64.500 C 227.054 64.500,227.167 64.387,227.167 64.250 C 227.167 64.112,227.279 64.000,227.417 64.000 C 227.554 64.000,227.667 63.887,227.667 63.750 C 227.667 63.612,227.811 63.500,227.986 63.500 C 228.483 63.500,228.833 63.320,228.833 63.066 C 228.833 62.898,229.065 62.833,229.667 62.833 C 230.268 62.833,230.500 62.898,230.500 63.066 M291.500 70.083 C 291.500 70.491,291.425 70.667,291.250 70.667 C 291.112 70.667,291.000 70.779,291.000 70.917 C 291.000 71.054,290.887 71.167,290.750 71.167 C 290.612 71.167,290.500 71.279,290.500 71.417 C 290.500 71.590,290.326 71.667,289.930 71.667 C 289.196 71.667,288.833 71.810,288.833 72.101 C 288.833 72.496,287.724 72.404,287.618 72.000 C 287.555 71.757,287.391 71.667,287.016 71.667 C 286.554 71.667,286.500 71.614,286.500 71.167 C 286.500 70.719,286.554 70.667,287.016 70.667 C 287.391 70.667,287.555 70.576,287.618 70.333 C 287.694 70.044,287.846 70.000,288.769 70.000 C 289.604 70.000,289.833 69.946,289.833 69.750 C 289.833 69.561,290.037 69.500,290.667 69.500 L 291.500 69.500 291.500 70.083 " stroke="none" fill="#040404" fill-rule="evenodd"></path><path id="path2" d="M114.234 3.128 C 114.134 3.195,114.001 3.456,113.939 3.708 C 113.877 3.960,113.753 4.167,113.663 4.167 C 113.574 4.167,113.500 4.270,113.500 4.397 C 113.500 4.524,113.350 4.667,113.167 4.715 C 112.983 4.763,112.833 4.922,112.833 5.068 C 112.833 5.214,112.721 5.333,112.583 5.333 C 112.446 5.333,112.333 5.475,112.333 5.649 C 112.333 5.822,112.221 6.008,112.083 6.060 C 111.946 6.113,111.833 6.346,111.833 6.578 C 111.833 6.889,111.746 7.000,111.500 7.000 C 111.315 7.000,111.167 7.111,111.167 7.250 C 111.167 7.388,111.054 7.500,110.917 7.500 C 110.779 7.500,110.667 7.604,110.667 7.732 C 110.667 7.860,110.554 8.008,110.417 8.060 C 110.271 8.116,110.167 8.366,110.167 8.661 C 110.167 9.056,110.093 9.167,109.833 9.167 C 109.648 9.167,109.500 9.278,109.500 9.417 C 109.500 9.554,109.388 9.667,109.250 9.667 C 109.111 9.667,109.000 9.815,109.000 10.000 C 109.000 10.185,108.889 10.333,108.750 10.333 C 108.612 10.333,108.500 10.448,108.500 10.589 C 108.500 10.729,108.388 10.887,108.250 10.940 C 108.112 10.992,108.000 11.141,108.000 11.269 C 108.000 11.398,107.850 11.632,107.667 11.789 C 107.483 11.946,107.333 12.170,107.333 12.287 C 107.333 12.404,107.221 12.500,107.083 12.500 C 106.946 12.500,106.833 12.585,106.833 12.690 C 106.833 12.794,106.712 12.969,106.563 13.077 C 106.402 13.195,106.284 13.539,106.272 13.929 L 106.250 14.583 115.125 14.626 L 124.000 14.670 124.000 14.010 C 124.000 13.348,123.451 12.500,123.023 12.500 C 122.918 12.500,122.833 12.391,122.833 12.258 C 122.833 12.125,122.740 11.957,122.625 11.883 C 122.510 11.810,122.267 11.457,122.085 11.099 C 121.902 10.741,121.621 10.413,121.460 10.371 C 121.299 10.329,121.167 10.153,121.167 9.981 C 121.167 9.808,121.054 9.667,120.917 9.667 C 120.779 9.667,120.667 9.554,120.667 9.417 C 120.667 9.279,120.554 9.167,120.417 9.167 C 120.278 9.167,120.167 9.019,120.167 8.833 C 120.167 8.650,120.017 8.350,119.833 8.167 C 119.650 7.983,119.500 7.758,119.500 7.667 C 119.500 7.575,119.388 7.500,119.250 7.500 C 119.112 7.500,119.000 7.388,119.000 7.250 C 119.000 7.112,118.888 7.000,118.750 7.000 C 118.611 7.000,118.500 6.852,118.500 6.665 C 118.500 6.481,118.350 6.202,118.167 6.045 C 117.983 5.888,117.833 5.663,117.833 5.546 C 117.833 5.429,117.721 5.333,117.583 5.333 C 117.444 5.333,117.333 5.185,117.333 5.000 C 117.333 4.815,117.222 4.667,117.083 4.667 C 116.946 4.667,116.833 4.554,116.833 4.417 C 116.833 4.278,116.685 4.167,116.500 4.167 C 116.243 4.167,116.167 4.056,116.167 3.684 C 116.167 3.399,116.059 3.161,115.903 3.101 C 115.539 2.962,114.456 2.979,114.234 3.128 " stroke="none" fill="#fccc14" fill-rule="evenodd"></path><path id="path3" d="" stroke="none" fill="#24687c" fill-rule="evenodd"></path><path id="path4" d="M20.625 22.513 C 20.465 22.607,20.334 22.773,20.336 22.883 C 20.338 23.022,20.376 23.028,20.461 22.902 C 20.528 22.803,20.733 22.636,20.917 22.532 C 21.100 22.429,21.175 22.343,21.083 22.343 C 20.992 22.343,20.785 22.420,20.625 22.513 M57.372 31.500 C 57.372 31.821,57.406 31.952,57.448 31.792 C 57.490 31.631,57.490 31.369,57.448 31.208 C 57.406 31.048,57.372 31.179,57.372 31.500 M90.623 44.815 C 90.578 44.988,90.606 45.232,90.685 45.357 C 90.782 45.511,90.829 45.410,90.831 45.042 C 90.834 44.435,90.747 44.341,90.623 44.815 M90.709 46.750 C 90.711 47.117,90.745 47.247,90.785 47.040 C 90.824 46.832,90.823 46.532,90.781 46.373 C 90.739 46.214,90.707 46.383,90.709 46.750 " stroke="none" fill="#a4a8b0" fill-rule="evenodd"></path></g></svg>